<?xml version="1.0" encoding="UTF-8"?>
<svg width="800px" height="600px" viewBox="0 0 800 600" xmlns="http://www.w3.org/2000/svg">
  <style>
    .grid {
      stroke: #e0e0e0;
      stroke-width: 1;
    }
    .axis {
      stroke: #333;
      stroke-width: 2;
    }
    .bar-positive {
      fill: #4BC0C0;
    }
    .bar-negative {
      fill: #FF6384;
    }
    .line {
      fill: none;
      stroke: #36A2EB;
      stroke-width: 3;
    }
    .area {
      fill: rgba(54, 162, 235, 0.2);
    }
    .point {
      fill: #36A2EB;
      stroke: white;
      stroke-width: 2;
    }
    .pie-segment-1 {
      fill: #FF6384;
    }
    .pie-segment-2 {
      fill: #36A2EB;
    }
    .pie-segment-3 {
      fill: #FFCE56;
    }
    .pie-segment-4 {
      fill: #4BC0C0;
    }
    .pie-segment-5 {
      fill: #9966FF;
    }
    .legend-box {
      fill: white;
      stroke: #e0e0e0;
      stroke-width: 1;
      rx: 5;
      ry: 5;
    }
    .legend-text {
      font-family: Poppins, sans-serif;
      font-size: 12px;
      fill: #333;
    }
    .title {
      font-family: Poppins, sans-serif;
      font-size: 20px;
      font-weight: bold;
      fill: #333;
      text-anchor: middle;
    }
    .label {
      font-family: Poppins, sans-serif;
      font-size: 12px;
      fill: #666;
      text-anchor: middle;
    }
  </style>
  
  <!-- Background -->
  <rect width="800" height="600" fill="#f8f9fa" rx="10" ry="10"/>
  
  <!-- Title -->
  <text x="400" y="40" class="title">Monthly Budget Overview</text>
  
  <!-- Left section: Bar chart -->
  <g transform="translate(80, 100)">
    <text x="150" y="-20" class="title" style="font-size: 16px;">Income vs. Expenses</text>
    
    <!-- Axes -->
    <line x1="0" y1="0" x2="0" y2="200" class="axis"/>
    <line x1="0" y1="200" x2="300" y2="200" class="axis"/>
    
    <!-- Grid -->
    <line x1="0" y1="50" x2="300" y2="50" class="grid"/>
    <line x1="0" y1="100" x2="300" y2="100" class="grid"/>
    <line x1="0" y1="150" x2="300" y2="150" class="grid"/>
    
    <!-- Bars -->
    <rect x="50" y="50" width="40" height="150" class="bar-positive"/>
    <rect x="110" y="100" width="40" height="100" class="bar-negative"/>
    <rect x="170" y="30" width="40" height="170" class="bar-positive"/>
    <rect x="230" y="80" width="40" height="120" class="bar-negative"/>
    
    <!-- Labels -->
    <text x="70" y="220" class="label">Jan</text>
    <text x="130" y="220" class="label">Feb</text>
    <text x="190" y="220" class="label">Mar</text>
    <text x="250" y="220" class="label">Apr</text>
  </g>
  
  <!-- Right section: Pie chart -->
  <g transform="translate(500, 200)">
    <text x="0" y="-100" class="title" style="font-size: 16px;">Expense Categories</text>
    
    <!-- Pie chart -->
    <path d="M0,0 L100,0 A100,100 0 0,1 70.7,70.7 z" class="pie-segment-1"/>
    <path d="M0,0 L70.7,70.7 A100,100 0 0,1 0,100 z" class="pie-segment-2"/>
    <path d="M0,0 L0,100 A100,100 0 0,1 -70.7,70.7 z" class="pie-segment-3"/>
    <path d="M0,0 L-70.7,70.7 A100,100 0 0,1 -100,0 z" class="pie-segment-4"/>
    <path d="M0,0 L-100,0 A100,100 0 0,1 0,-100 L0,0 z" class="pie-segment-5"/>
    
    <!-- Legend -->
    <rect x="120" y="-80" width="120" height="160" class="legend-box"/>
    
    <rect x="130" y="-70" width="10" height="10" class="pie-segment-1"/>
    <text x="150" y="-60" class="legend-text">Housing</text>
    
    <rect x="130" y="-50" width="10" height="10" class="pie-segment-2"/>
    <text x="150" y="-40" class="legend-text">Food</text>
    
    <rect x="130" y="-30" width="10" height="10" class="pie-segment-3"/>
    <text x="150" y="-20" class="legend-text">Transport</text>
    
    <rect x="130" y="-10" width="10" height="10" class="pie-segment-4"/>
    <text x="150" y="0" class="legend-text">Entertainment</text>
    
    <rect x="130" y="10" width="10" height="10" class="pie-segment-5"/>
    <text x="150" y="20" class="legend-text">Utilities</text>
  </g>
  
  <!-- Bottom section: Line chart -->
  <g transform="translate(80, 400)">
    <text x="300" y="-20" class="title" style="font-size: 16px;">Savings Trend</text>
    
    <!-- Axes -->
    <line x1="0" y1="0" x2="0" y2="150" class="axis"/>
    <line x1="0" y1="150" x2="600" y2="150" class="axis"/>
    
    <!-- Grid -->
    <line x1="0" y1="50" x2="600" y2="50" class="grid"/>
    <line x1="0" y1="100" x2="600" y2="100" class="grid"/>
    
    <!-- Line and area -->
    <path d="M0,150 L100,120 L200,100 L300,70 L400,50 L500,30 L600,20 L600,150 Z" class="area"/>
    <path d="M0,150 L100,120 L200,100 L300,70 L400,50 L500,30 L600,20" class="line"/>
    
    <!-- Points -->
    <circle cx="0" cy="150" r="5" class="point"/>
    <circle cx="100" cy="120" r="5" class="point"/>
    <circle cx="200" cy="100" r="5" class="point"/>
    <circle cx="300" cy="70" r="5" class="point"/>
    <circle cx="400" cy="50" r="5" class="point"/>
    <circle cx="500" cy="30" r="5" class="point"/>
    <circle cx="600" cy="20" r="5" class="point"/>
    
    <!-- Labels -->
    <text x="0" y="170" class="label">Jan</text>
    <text x="100" y="170" class="label">Feb</text>
    <text x="200" y="170" class="label">Mar</text>
    <text x="300" y="170" class="label">Apr</text>
    <text x="400" y="170" class="label">May</text>
    <text x="500" y="170" class="label">Jun</text>
    <text x="600" y="170" class="label">Jul</text>
  </g>
</svg> 